<svg id="Capa_1" enable-background="new 0 0 512 512" height="512" viewBox="0 0 512 512" width="512" xmlns="http://www.w3.org/2000/svg"><g><g><g><g><path d="m278.069 367.022-85.328-14.234-71.559-26.137c-15.854-5.791-33.071 4.242-35.848 20.891-2.138 12.816 5.168 25.334 17.378 29.776l81.737 29.738 84.588 14.111z" fill="#a34f41"/></g><g><g><path d="m400.752 225.144c41.674-41.674 41.674-109.241 0-150.915-41.674-41.674-109.241-41.674-150.915 0l-26.549 26.549c-4.023 4.023-10.546 4.023-14.569 0l-26.549-26.549c-41.674-41.674-109.241-41.674-150.915 0-41.674 41.674-41.674 109.241 0 150.915l169.59 169.59c8.372 8.372 21.945 8.372 30.317 0z" fill="#fb6a3b"/><path d="m400.758 225.136-169.591 169.59c-8.382 8.382-21.952 8.382-30.312 0l-20.451-20.451 164.81-164.831c41.674-41.674 41.674-109.245 0-150.897v-.021c-6.067-6.067-12.691-11.255-19.722-15.542 27.247.043 54.472 10.461 75.266 31.256 41.674 41.672 41.674 109.221 0 150.896z" fill="#fb5532"/></g></g><g><g><path d="m236.313 375.774h-86.507l-74.884-14.007c-16.591-3.103-31.922 9.626-31.922 26.505 0 12.993 9.266 24.138 22.04 26.511l85.516 15.884h85.757z" fill="#ba5d4f"/></g><path d="m511.994 362.888h-24.175c-10.191 0-20.033 3.71-27.689 10.436l-93.114 81.809c-10.192 8.955-23.295 13.893-36.862 13.893h-161.265l-85.516-15.884c-12.775-2.373-22.04-13.518-22.04-26.511 0-16.879 15.331-29.608 31.922-26.505l74.884 14.007h106.927l106.604-106.603 29.306-78.484h101.019v133.842z" fill="#c86f5c"/><path d="m254.205 361.244-51.591-10.072c-17.074-3.333-33.378 8.555-35.426 25.83-1.717 14.49 7.274 28.104 21.275 32.213l76.568 22.471c10.266 3.215 21.44 1.551 30.324-4.515l130.16-88.882v-109.243h-26.917c-63.098 0-119.114 99.557-133.284 126.848-2.104 4.052-6.628 6.225-11.109 5.35z" fill="#c86f5c"/><path d="m265.32 355.893c-2.104 4.052-6.628 6.225-11.109 5.35l-51.59-10.071c-17.075-3.337-33.384 8.556-35.429 25.832-.138 1.192-.213 2.371-.213 3.538 0 11.366 6.486 21.729 16.573 26.748 4.855-13.612 19.082-22.181 33.899-19.283l47.55 9.282c6.834 1.334 13.735-1.944 17.006-8.091 16.713-31.408 70.799-123.312 131.423-123.312h98.57v-36.834h-113.402c-63.095-.001-119.109 99.551-133.278 126.841z" fill="#ba5d4f"/></g></g><g><path d="m393.303 378.592-92.562 63.202c-7.232 4.945-15.607 7.489-24.106 7.489-4.286 0-8.592-.649-12.815-1.957l-76.501-22.458c-9.921-2.915-18.038-6.892-24.055-11.651l4.873.917h37.468l62.635 18.379c.041.01.082.031.134.041 8.056 2.524 16.679 1.236 23.653-3.523l92.562-63.202c3.523-2.411 8.334-1.504 10.734 2.019 2.409 3.522 1.503 8.333-2.02 10.744z" fill="#ba5d4f"/></g></g><g><path d="m247.189 222.624c-1.859-6.273-5.866-11.98-11.869-15.92-11.845-7.774-27.919-5.626-37.314 4.98-5.06 5.713-7.426 12.773-7.285 19.732.162 8.028-2.699 15.715-7.978 21.765-5.716 6.551-8.457 15.637-6.476 24.998 2.925 13.826 15.77 23.6 29.876 22.748 4.432-.267 8.541-1.503 12.152-3.478 7.081-3.873 15.319-4.944 23.156-3.012 3.988.983 8.267 1.127 12.611.257 13.748-2.753 23.658-15.316 23.1-29.326-.423-10.616-6.384-19.453-14.81-24.145-7.277-4.052-12.796-10.613-15.163-18.599z" fill="#64b9fc"/><path d="m277.167 265.366c.55 14.01-9.351 26.574-23.101 29.324-4.342.877-8.621.732-12.621-.254-.107-.025-.227-.048-.334-.073 3.975-5.194 6.219-11.708 5.948-18.584-.419-10.611-6.376-19.448-14.807-24.145-7.282-4.054-12.799-10.611-15.164-18.604-1.855-6.267-5.872-11.98-11.866-15.915-2.684-1.755-5.588-3.014-8.57-3.769.421-.561.881-1.115 1.356-1.657 9.388-10.614 25.464-12.757 37.309-4.985 6.007 3.934 10.011 9.648 11.866 15.915 2.378 7.992 7.895 14.548 15.164 18.604 8.431 4.696 14.388 13.534 14.82 24.143z" fill="#31a7fb"/><g><circle cx="180.236" cy="163.455" fill="#64b9fc" r="20.589"/><g><path d="m200.654 160.796c1.467 11.276-6.485 21.606-17.76 23.073-2.932.381-5.803.124-8.464-.664 6.753-4.103 10.825-11.921 9.74-20.264-1.086-8.344-7.023-14.859-14.601-17.097 2.37-1.443 5.08-2.426 8.012-2.808 11.275-1.467 21.605 6.485 23.073 17.76z" fill="#31a7fb"/></g><circle cx="243.952" cy="155.165" fill="#64b9fc" r="20.589"/><path d="m264.367 152.506c1.467 11.276-6.485 21.606-17.76 23.073-2.941.383-5.812.126-8.472-.663 6.763-4.096 10.834-11.922 9.749-20.266-1.086-8.344-7.024-14.867-14.61-17.096 2.37-1.443 5.08-2.426 8.021-2.809 11.274-1.466 21.605 6.485 23.072 17.761z" fill="#31a7fb"/></g><g><circle cx="144.39" cy="218.081" fill="#64b9fc" r="20.589"/><g><path d="m164.804 215.426c1.467 11.276-6.485 21.606-17.76 23.074-2.941.383-5.812.126-8.472-.663 6.763-4.096 10.834-11.922 9.749-20.266-1.086-8.344-7.024-14.867-14.61-17.096 2.37-1.443 5.08-2.426 8.021-2.809 11.275-1.467 21.605 6.484 23.072 17.76z" fill="#31a7fb"/></g><circle cx="292.583" cy="198.799" fill="#64b9fc" r="20.589"/><path d="m313.002 196.143c1.467 11.276-6.485 21.606-17.76 23.074-2.932.381-5.803.124-8.464-.664 6.753-4.103 10.825-11.921 9.74-20.264-1.086-8.344-7.023-14.859-14.601-17.097 2.37-1.443 5.08-2.426 8.012-2.808 11.275-1.468 21.606 6.483 23.073 17.759z" fill="#31a7fb"/></g></g></g></svg>